<svg width="4000" height="4000" viewBox="0 0 4000 4000" fill="none" xmlns="http://www.w3.org/2000/svg">
<path fill-rule="evenodd" clip-rule="evenodd" d="M860.68 1814.45L0.00292056 618.896L618.899 0L2000 994.251L3381.1 0L4000 618.896L3139.32 1814.45L4000 2434.06L3543.1 2890.96L2892.16 2403.8L2403.79 2892.17L2890.97 3543.1L2434.06 4000L2000 3397.06L1565.94 4000L1109.03 3543.1L1596.21 2892.17L1107.84 2403.8L456.902 2890.96L0 2434.06L860.68 1814.45ZM1498.91 1355L918.849 918.856L1335.34 1472.76L1498.91 1355ZM2664.66 1472.76L3081.15 918.859L2501.09 1355L2664.66 1472.76ZM1699.8 1957.48L2000 2356.75L2300.2 1957.48L2000 1731.77L1699.8 1957.48Z" fill="#D8DADE"/>
</svg>
